<?xml version="1.0" standalone="no"?>
<!DOCTYPE svg PUBLIC "-//W3C//DTD SVG 20010904//EN"
 "http://www.w3.org/TR/2001/REC-SVG-20010904/DTD/svg10.dtd">
<svg version="1.0" xmlns="http://www.w3.org/2000/svg"
 width="128.000000pt" height="128.000000pt" viewBox="0 0 128.000000 128.000000"
 preserveAspectRatio="xMidYMid meet">
<metadata>
Created by potrace 1.14, written by Peter Selinger 2001-2017
</metadata>
<g transform="translate(0.000000,128.000000) scale(0.100000,-0.100000)"
fill="#000000" stroke="none">
<path d="M75 1198 c-3 -7 -4 -263 -3 -568 l3 -555 565 0 565 0 0 565 0 565
-563 3 c-445 2 -564 0 -567 -10z m477 -362 c37 -60 69 -111 72 -113 2 -2 36
48 76 111 65 106 74 116 101 116 21 0 32 -7 40 -24 10 -22 4 -36 -54 -130
l-66 -106 124 0 c112 0 127 -2 145 -20 25 -25 25 -35 0 -60 -18 -18 -33 -20
-150 -20 -71 0 -130 -2 -130 -5 0 -3 27 -48 60 -100 86 -137 84 -132 65 -161
-33 -51 -60 -30 -150 118 -25 43 -50 80 -55 83 -4 3 -39 -46 -78 -107 -70
-115 -94 -135 -128 -108 -26 22 -15 55 55 168 l70 112 -130 0 c-72 0 -139 5
-150 10 -22 12 -26 64 -6 77 6 4 69 10 139 13 l127 5 -59 95 c-33 52 -60 104
-60 116 0 28 20 45 50 42 19 -2 39 -26 92 -112z"/>
</g>
</svg>
